<?xml version="1.0" encoding="UTF-8"?>
<svg id="Layer_1" data-name="Layer 1" xmlns="http://www.w3.org/2000/svg" viewBox="0 0 3764.67 2015.37">
  <defs>
    <style>
      .cls-1 {
        fill: #fdfffc;
      }

      .cls-2 {
        fill: #161925;
      }
    </style>
  </defs>
  <path class="cls-2" d="m1778.38,843.41h365.39v323.62c0,49.88-40.5,90.38-90.38,90.38h-440.62v-248.39c0-91.4,74.21-165.61,165.61-165.61Z"/>
  <g>
    <path class="cls-1" d="m1785.27,862.91h0v375h-70v-310.5h-8v310.5h-70v-227c0-81.74,66.26-148,148-148Z"/>
    <path class="cls-1" d="m1805.77,1170.91h70c4.42,0,8-3.58,8-8h0s-1.15,0-1.15,0c-42.44,0-76.85-34.41-76.85-76.85v-223.15h70v235h8v-235h70v301.5c0,42.5-27,73.5-75,73.5h-73v-67Z"/>
    <path class="cls-1" d="m2043.77,862.91v185h4.5c2,0,3.5-3.5,3.5-7v-178h70v157.5c0,21-8.5,39.5-22.5,52.5h22.5v95c0,38.66-31.34,70-70,70h0v-125h-4.5c-2,0-3.5,3.5-3.5,7v118h-70v-112.5c0-21,8-39.5,22-52.5h-22v-210h70Z"/>
  </g>
</svg>