<?xml version="1.0" encoding="utf-8"?>
<!-- Generator: Adobe Illustrator 27.3.1, SVG Export Plug-In . SVG Version: 6.00 Build 0)  -->
<svg version="1.1" id="Layer_1" xmlns="http://www.w3.org/2000/svg" xmlns:xlink="http://www.w3.org/1999/xlink" x="0px" y="0px"
	 viewBox="0 0 3764.7 2015.4" style="enable-background:new 0 0 3764.7 2015.4;" xml:space="preserve">
<style type="text/css">
	.st0{fill:#161925;}
	.st1{fill:#FDFFFC;}
</style>
<path class="st0" d="M1590.9,338.3h1202.7v1065.3c0,164.1-133.3,297.6-297.6,297.6H1045.6V883.6
	C1045.8,582.7,1290.2,338.3,1590.9,338.3L1590.9,338.3z"/>
<g>
	<path class="st1" d="M1609.3,402.5L1609.3,402.5v1234.3H1379V614.8h-26.4v1022.1h-230.4V889.7
		C1122.2,620.7,1340.4,402.5,1609.3,402.5L1609.3,402.5z"/>
	<path class="st1" d="M1676.9,1416.3h230.4c14.6,0,26.4-11.8,26.4-26.4l0,0h-3.8c-139.7,0-252.9-113.3-252.9-252.9V402.5h230.4
		v773.6h26.4V402.5H2164V1395c0,140-88.8,242-246.9,242h-240.2V1416.3z"/>
	<path class="st1" d="M2460.3,402.5v609h14.8c6.5,0,11.6-11.6,11.6-23V402.5H2717V921c0,69.1-28,130-74,172.9h74v312.7
		c0,127.3-103.1,230.4-230.4,230.4l0,0v-411.5h-14.8c-6.5,0-11.6,11.6-11.6,23v388.5h-230.4v-370.3c0-69.1,26.4-130,72.4-172.9
		h-72.4V402.5H2460.3L2460.3,402.5z"/>
</g>
</svg>
